<mxfile host="app.diagrams.net" modified="2023-03-02T13:40:14.830Z" agent="5.0 (Windows NT 10.0; Win64; x64) AppleWebKit/537.36 (KHTML, like Gecko) Chrome/110.0.0.0 Safari/537.36" etag="oYp4WyYBh5DQgF5bBFPJ" version="20.8.23" type="github">
  <diagram name="Page-1" id="58Rh1l4NXT2h-qk9-TIZ">
    <mxGraphModel dx="1434" dy="788" grid="1" gridSize="10" guides="1" tooltips="1" connect="1" arrows="1" fold="1" page="1" pageScale="1" pageWidth="1169" pageHeight="827" math="0" shadow="0">
      <root>
        <mxCell id="0" />
        <mxCell id="1" parent="0" />
        <mxCell id="Wf5LqXKI-dvvq50SPuwZ-1" value="" style="ellipse;whiteSpace=wrap;html=1;" parent="1" vertex="1">
          <mxGeometry x="520" y="180" width="120" height="80" as="geometry" />
        </mxCell>
      </root>
    </mxGraphModel>
  </diagram>
</mxfile>
